<svg width="1024" height="1024" viewBox="0 0 1024 1024" fill="none" xmlns="http://www.w3.org/2000/svg">
<g clip-path="url(#clip0)">
<path d="M66 414.796H957.291V888.453H66V414.796Z" fill="#5C5F60"/>
<path d="M633.979 303H843.694V337.953H633.979V303Z" fill="#A2A6A7"/>
<path d="M179.596 303H284.453V337.953H179.596V303Z" fill="#5C5F60"/>
<path d="M66 337.952H957.291V425.33H66V337.952V337.952ZM66 862.24H957.291V949.622H66V862.24Z" fill="#D9DFE1"/>
<path d="M516.014 417.762C655.967 417.762 769.421 531.215 769.421 671.167C769.421 811.12 655.968 924.574 516.014 924.574C376.063 924.574 262.608 811.121 262.608 671.167C262.608 531.215 376.063 417.762 516.014 417.762V417.762Z" fill="#9A9EA0"/>
<path d="M511.645 407.856C651.597 407.856 765.051 521.309 765.051 661.262C765.051 801.214 651.598 914.668 511.645 914.668C371.693 914.668 258.238 801.215 258.238 661.262C258.239 521.31 371.693 407.856 511.645 407.856Z" fill="#E4EAEC"/>
<path d="M511.645 460.284C622.641 460.284 712.622 550.265 712.622 661.262C712.622 772.26 622.641 862.24 511.645 862.24C400.649 862.24 310.667 772.26 310.667 661.262C310.667 550.265 400.649 460.284 511.645 460.284V460.284Z" fill="#D966FF"/>
<path d="M670.857 594.441C670.938 594.616 671.022 594.789 671.101 594.965C671.022 594.789 670.938 594.616 670.857 594.441ZM686.028 654.38C686.067 654.975 686.109 655.57 686.142 656.168C686.109 655.57 686.067 654.975 686.028 654.38ZM676.315 607.744C676.449 608.115 676.577 608.489 676.709 608.861C676.577 608.489 676.449 608.115 676.315 607.744ZM686.281 659.357C686.3 659.869 686.325 660.377 686.339 660.89C686.325 660.377 686.3 659.868 686.281 659.357ZM664.45 581.922C664.588 582.165 664.723 582.41 664.859 582.654C664.723 582.41 664.588 582.165 664.45 581.922ZM680.449 620.85C680.578 621.326 680.71 621.801 680.836 622.279C680.71 621.802 680.578 621.326 680.449 620.85ZM684.537 640.345C684.619 640.899 684.693 641.454 684.771 642.009C684.693 641.454 684.619 640.898 684.537 640.345ZM666.631 585.905C666.783 586.193 666.936 586.48 667.086 586.768L666.631 585.905ZM668.746 590.03C668.883 590.306 669.022 590.582 669.157 590.859C669.022 590.582 668.883 590.306 668.746 590.03ZM681.655 625.552C681.75 625.946 681.85 626.338 681.943 626.733C681.85 626.338 681.75 625.946 681.655 625.552ZM645.777 555.208L645.948 555.411L645.777 555.208ZM648.69 558.725L648.96 559.061L648.69 558.725ZM677.794 612.024C677.944 612.478 678.091 612.935 678.237 613.39C678.091 612.935 677.944 612.478 677.794 612.024ZM683.801 635.796C683.874 636.21 683.937 636.627 684.007 637.043C683.937 636.627 683.873 636.21 683.801 635.796ZM629.501 538.543L629.506 538.548L629.501 538.543ZM674.733 603.532C674.786 603.668 674.835 603.805 674.889 603.941C674.835 603.804 674.786 603.667 674.733 603.532ZM651.586 562.415L651.793 562.685L651.586 562.415ZM622.351 532.497L622.352 532.498L622.351 532.497ZM662.188 578.035L662.415 578.417C662.338 578.29 662.264 578.162 662.188 578.035Z" fill="#FFD258"/>
<path d="M514.68 836.007C515.125 836.011 515.568 836.024 516.014 836.024C515.568 836.024 515.125 836.011 514.68 836.007Z" fill="#FF8A00"/>
<path d="M476.806 657.254C478.184 659.712 479.672 662.105 481.267 664.428C500.081 656.761 520.659 652.526 542.228 652.526C598.004 652.526 647.182 680.772 676.236 723.741C682.815 705.606 686.408 686.039 686.408 665.631C686.408 664.045 686.382 662.465 686.339 660.889C686.325 660.376 686.3 659.868 686.281 659.356C686.245 658.293 686.198 657.229 686.142 656.167C686.109 655.569 686.067 654.974 686.028 654.379C685.965 653.405 685.896 652.431 685.817 651.461C685.634 649.285 685.414 647.112 685.154 644.944C685.036 643.963 684.905 642.984 684.77 642.008C684.693 641.453 684.619 640.897 684.536 640.344C684.372 639.239 684.192 638.14 684.006 637.042C683.936 636.626 683.873 636.209 683.8 635.794C683.263 632.757 682.644 629.735 681.942 626.732C681.85 626.337 681.749 625.945 681.654 625.551C681.392 624.457 681.118 623.366 680.834 622.278C680.709 621.8 680.577 621.325 680.447 620.849C680.041 619.354 679.615 617.864 679.167 616.38C678.865 615.38 678.554 614.383 678.235 613.39C678.089 612.934 677.942 612.478 677.792 612.024C677.44 610.966 677.079 609.912 676.706 608.861C676.574 608.489 676.446 608.114 676.312 607.744C675.852 606.47 675.376 605.202 674.886 603.94C674.832 603.804 674.783 603.667 674.73 603.531C673.599 600.642 672.388 597.785 671.099 594.964C671.02 594.789 670.936 594.615 670.855 594.44C670.302 593.239 669.735 592.045 669.155 590.858C669.019 590.581 668.881 590.305 668.744 590.029C668.058 588.645 667.353 587.27 666.628 585.905C666.049 584.815 665.459 583.732 664.857 582.654L664.448 581.922C663.783 580.745 663.103 579.576 662.411 578.417C662.336 578.29 662.262 578.162 662.185 578.035C659.001 572.734 655.53 567.61 651.79 562.685L651.583 562.415C650.722 561.286 649.846 560.167 648.957 559.06L648.687 558.724C647.787 557.608 646.873 556.503 645.944 555.411L645.774 555.208C640.734 549.292 635.298 543.726 629.504 538.547L629.499 538.542C628.355 537.52 627.197 536.513 626.026 535.522L625.909 535.422C624.736 534.431 623.55 533.456 622.351 532.496L622.35 532.495C553.685 543.44 497.727 592.473 476.806 657.254V657.254Z" fill="#FFD258"/>
<path d="M505.378 835.678L505.336 835.681C508.43 835.872 511.544 835.983 514.68 836.006C514.604 835.922 514.531 835.835 514.457 835.752C512.319 835.733 505.667 835.688 505.378 835.678V835.678ZM542.228 652.526C520.659 652.526 500.081 656.761 481.267 664.428C483.186 667.244 485.268 669.947 487.502 672.521C495.661 682.954 504.97 692.434 515.251 700.784C543.716 711.184 564.074 738.424 564.074 770.487C564.074 798.442 548.601 822.715 525.774 835.358C525.127 835.444 524.487 835.541 523.83 835.609C523.839 835.655 515.106 835.709 515.115 835.759L514.457 835.752L514.68 836.006C515.125 836.009 515.568 836.023 516.014 836.023C589.714 836.023 652.478 789.233 676.236 723.74C647.181 680.772 598.004 652.526 542.228 652.526V652.526Z" fill="#FF8A00"/>
<path d="M515.251 700.784C504.97 692.434 495.661 682.954 487.502 672.521C485.268 669.947 483.186 667.244 481.267 664.428C479.673 662.105 478.184 659.711 476.806 657.254L476.762 657.181C460.118 630.466 450.479 598.947 450.479 565.143C450.479 543.625 454.559 523.11 461.689 504.086C394.221 526.765 345.62 590.521 345.62 665.632C345.62 707.267 360.562 745.408 385.364 775.003C414.483 809.75 457.203 832.704 505.336 835.682L505.378 835.679C505.667 835.689 512.319 835.734 514.457 835.753C514.819 835.756 515.067 835.758 515.115 835.76C515.106 835.71 523.839 835.656 523.83 835.61C524.487 835.542 525.127 835.445 525.774 835.359C548.601 822.716 564.074 798.443 564.074 770.488C564.074 738.424 543.716 711.184 515.251 700.784V700.784Z" fill="#4EB6FF"/>
<path d="M66 337.952H170.857V425.33H66V337.952V337.952ZM66 862.242H170.857V949.62H66V862.242Z" fill="#E1E5E7"/>
<path d="M66 425.33H170.857V862.24H66V425.33Z" fill="#7D7F80"/>
<path d="M852.433 337.952H957.291V425.33H852.433V337.952V337.952ZM852.433 862.242H957.291V949.62H852.433V862.242Z" fill="#C3C8CA"/>
<path d="M852.433 425.33H957.291V862.24H852.433V425.33Z" fill="#535556"/>
<path d="M6.75 175V14.9219H71.0859C86.5547 14.9219 98.7812 19.5703 107.766 28.8672C116.75 38.0859 121.242 49.5312 121.242 63.2031C121.242 76.7969 116.711 88.2422 107.648 97.5391C98.6641 106.758 86.4766 111.367 71.0859 111.367H26.6719V175H6.75ZM26.6719 93.6719H68.625C78.0781 93.6719 85.7734 90.8594 91.7109 85.2344C97.6484 79.6094 100.617 72.2656 100.617 63.2031C100.617 54.1406 97.6484 46.7969 91.7109 41.1719C85.7734 35.5469 78.0781 32.7344 68.625 32.7344H26.6719V93.6719ZM136.828 117.109C136.828 98.75 141.633 84.0234 151.242 72.9297C160.852 61.7578 173.273 56.1719 188.508 56.1719C196.242 56.1719 203.469 57.9688 210.188 61.5625C216.984 65.1562 222.766 70.1562 227.531 76.5625V59.1016H245.578V175H227.531V157.773C223 163.867 217.336 168.75 210.539 172.422C203.742 176.094 196.398 177.93 188.508 177.93C173.195 177.93 160.734 172.461 151.125 161.523C141.594 150.508 136.828 135.703 136.828 117.109ZM165.656 84.8828C158.938 93.2422 155.578 103.984 155.578 117.109C155.578 130.234 158.898 140.977 165.539 149.336C172.258 157.617 181.398 161.758 192.961 161.758C199.914 161.758 206.594 160 213 156.484C219.484 152.891 224.328 148.516 227.531 143.359V90.9766C224.328 85.7422 219.484 81.3281 213 77.7344C206.516 74.0625 199.836 72.2266 192.961 72.2266C181.477 72.2266 172.375 76.4453 165.656 84.8828ZM281.672 219.18V59.1016H299.602V76.3281C303.977 70.2344 309.602 65.3516 316.477 61.6797C323.43 58.0078 330.852 56.1719 338.742 56.1719C354.133 56.1719 366.555 61.6406 376.008 72.5781C385.539 83.4375 390.305 98.2031 390.305 116.875C390.305 135.391 385.539 150.195 376.008 161.289C366.555 172.383 354.133 177.93 338.742 177.93C330.93 177.93 323.664 176.133 316.945 172.539C310.305 168.945 304.523 163.906 299.602 157.422V219.18H281.672ZM299.602 143.125C302.805 148.359 307.648 152.773 314.133 156.367C320.617 159.961 327.297 161.758 334.172 161.758C345.578 161.758 354.641 157.578 361.359 149.219C368.078 140.781 371.438 130 371.438 116.875C371.438 103.75 368.078 93.0469 361.359 84.7656C354.641 76.4062 345.578 72.2266 334.172 72.2266C327.297 72.2266 320.617 74.0234 314.133 77.6172C307.648 81.2109 302.805 85.5859 299.602 90.7422V143.125ZM412.219 117.109C412.219 98.75 417.023 84.0234 426.633 72.9297C436.242 61.7578 448.664 56.1719 463.898 56.1719C471.633 56.1719 478.859 57.9688 485.578 61.5625C492.375 65.1562 498.156 70.1562 502.922 76.5625V59.1016H520.969V175H502.922V157.773C498.391 163.867 492.727 168.75 485.93 172.422C479.133 176.094 471.789 177.93 463.898 177.93C448.586 177.93 436.125 172.461 426.516 161.523C416.984 150.508 412.219 135.703 412.219 117.109ZM441.047 84.8828C434.328 93.2422 430.969 103.984 430.969 117.109C430.969 130.234 434.289 140.977 440.93 149.336C447.648 157.617 456.789 161.758 468.352 161.758C475.305 161.758 481.984 160 488.391 156.484C494.875 152.891 499.719 148.516 502.922 143.359V90.9766C499.719 85.7422 494.875 81.3281 488.391 77.7344C481.906 74.0625 475.227 72.2266 468.352 72.2266C456.867 72.2266 447.766 76.4453 441.047 84.8828ZM557.062 175V59.1016H574.992V77.6172C579.992 71.2109 585.812 66.0938 592.453 62.2656C599.094 58.3594 606.164 56.4062 613.664 56.4062V74.9219C610.852 74.6094 608.547 74.4531 606.75 74.4531C601.203 74.4531 595.188 76.3672 588.703 80.1953C582.219 83.9453 577.648 88.2031 574.992 92.9688V175H557.062ZM629.484 117.109C629.484 98.75 634.289 84.0234 643.898 72.9297C653.508 61.7578 665.93 56.1719 681.164 56.1719C688.898 56.1719 696.125 57.9688 702.844 61.5625C709.641 65.1562 715.422 70.1562 720.188 76.5625V59.1016H738.234V175H720.188V157.773C715.656 163.867 709.992 168.75 703.195 172.422C696.398 176.094 689.055 177.93 681.164 177.93C665.852 177.93 653.391 172.461 643.781 161.523C634.25 150.508 629.484 135.703 629.484 117.109ZM658.312 84.8828C651.594 93.2422 648.234 103.984 648.234 117.109C648.234 130.234 651.555 140.977 658.195 149.336C664.914 157.617 674.055 161.758 685.617 161.758C692.57 161.758 699.25 160 705.656 156.484C712.141 152.891 716.984 148.516 720.188 143.359V90.9766C716.984 85.7422 712.141 81.3281 705.656 77.7344C699.172 74.0625 692.492 72.2266 685.617 72.2266C674.133 72.2266 665.031 76.4453 658.312 84.8828ZM768.703 175V160.82L832.57 74.9219H768.703V59.1016H856.125V72.8125L791.789 159.18H857.062V175H768.703ZM881.906 175V160.82L945.773 74.9219H881.906V59.1016H969.328V72.8125L904.992 159.18H970.266V175H881.906ZM1001.09 39.0625C998.742 36.7188 997.57 33.8672 997.57 30.5078C997.57 27.1484 998.742 24.2969 1001.09 21.9531C1003.51 19.5312 1006.4 18.3203 1009.76 18.3203C1013.12 18.3203 1015.97 19.5312 1018.31 21.9531C1020.66 24.2969 1021.83 27.1484 1021.83 30.5078C1021.83 33.8672 1020.66 36.7188 1018.31 39.0625C1015.97 41.4062 1013.12 42.5781 1009.76 42.5781C1006.4 42.5781 1003.51 41.4062 1001.09 39.0625ZM1000.73 175V59.1016H1018.66V175H1000.73Z" fill="#535556"/>
</g>
<defs>
<clipPath id="clip0">
<rect width="1024" height="1024" fill="white"/>
</clipPath>
</defs>
</svg>
